<?xml version="1.0" encoding="UTF-8"?><!--
  - site-main.svg copyright (c) 2022 oddhorse all rights reserved uwu
  -->

<svg id="a" xmlns="http://www.w3.org/2000/svg" viewBox="0 0 245.23 59.15"><defs><style>.b{fill:#212529;}</style></defs><path class="b" d="M.53,42.59c.33-1.35,.82-2.67,1.42-3.91,.6-1.24,1.33-2.42,2.17-3.52s1.78-2.12,2.81-3.05c1.03-.93,2.16-1.77,3.36-2.51,1.2-.74,2.47-1.37,3.8-1.89,1.33-.52,2.71-.92,4.2-1.19s3.07-.41,4.69-.41c1.98,0,3.77,.21,5.32,.59,1.55,.39,2.88,.95,3.98,1.67s2.21,1.59,3.14,2.59c.93,1,1.68,2.12,2.19,3.34s.76,2.54,.75,3.93c0,1.39-.28,2.86-.81,4.36-.52,1.48-1.26,2.88-2.11,4.19-.85,1.31-1.82,2.52-2.76,3.64-.94,1.12-1.93,2.14-3.07,3.05s-2.4,1.73-3.72,2.43c-1.33,.7-2.73,1.3-4.15,1.78s-2.87,.85-4.28,1.09c-1.41,.25-2.76,.37-4.12,.37-2.08,0-3.93-.3-5.54-.85-1.61-.55-2.97-1.35-4.09-2.36-1.12-1.01-1.99-2.22-2.6-3.59S.12,49.46,.03,47.81c-.1-1.64,.06-3.41,.5-5.22Zm28.78,3.52c.42-1.67,.61-3.41,.61-5.11s-.22-3.35-.64-4.89-1.06-2.94-1.93-4.14c-.86-1.2-1.95-2.18-3.26-2.87-1.31-.69-2.84-1.07-4.55-1.07-1.37,0-2.67,.25-3.86,.74-1.19,.49-2.31,1.21-3.32,2.15-1.01,.95-1.92,2.11-2.68,3.49s-1.37,2.98-1.82,4.74c-.44,1.74-.68,3.51-.69,5.22,0,1.71,.2,3.36,.62,4.88,.42,1.52,1.04,2.9,1.87,4.07,.83,1.17,1.85,2.13,3.07,2.79s2.6,1.03,4.23,1.03c1.35,0,2.7-.26,4-.76,1.29-.5,2.52-1.23,3.61-2.18s2.07-2.12,2.88-3.47c.8-1.36,1.45-2.91,1.87-4.63Z"/><path class="b" d="M79.44,53.95c-1.26,.66-2.3,1.21-3.28,1.73-.98,.51-1.88,.99-2.86,1.51-.98,.51-2.02,1.07-3.28,1.73-.22,.08-.37,.08-.44,.08-.48,0-.97-.52-1.36-1.52-.39-1-.68-2.48-.76-4.4-1.03,1.01-2.18,2.02-3.46,2.91s-2.69,1.66-4.2,2.21c-1.52,.55-3.15,.88-4.84,.88-1.3,0-2.46-.23-3.82-.68-1.36-.45-2.81-1.11-4.16-1.98-1.36-.87-2.62-1.93-3.67-3.19-1.05-1.26-1.89-2.7-2.46-4.32-.57-1.62-.88-3.41-.88-5.36,0-1.81,.29-3.45,.82-4.95,.53-1.49,1.3-2.84,2.26-4.04,.96-1.2,2.11-2.26,3.35-3.19s2.57-1.72,3.84-2.39c1.27-.67,2.41-1.21,3.51-1.64s2.27-.74,3.44-.94c1.17-.2,2.35-.3,3.47-.3,1.25,0,2.45,.12,3.57,.34,1.12,.22,2.17,.54,3.14,.94V10.67c0-1.8-.13-3.12-.5-3.99-.36-.87-.95-1.29-1.86-1.29-.8,0-1.84,.4-3.22,.96-.49,.24-.89-.8-.65-.88,1.52-.71,2.79-1.31,3.95-1.87,1.16-.56,2.23-1.07,3.34-1.63,1.11-.56,2.25-1.15,3.64-1.87,.15-.08,.22-.08,.29-.08,.44,0,1.03,.56,1.03,.88V48.91c0,1.88,.17,3.16,.53,3.97s.94,1.15,1.75,1.15c.74,0,1.91-.24,3.31-.96,.29-.24,.74,.72,.44,.88Zm-12.06-2.4v-19.12c-1.01-1.44-2.13-2.54-3.48-3.28s-2.92-1.12-4.77-1.12c-1.47,0-2.78,.24-3.9,.74-1.12,.5-2.02,1.27-2.84,2.33s-1.54,2.4-2.04,4.05-.78,3.62-.78,5.92,.3,4.33,.82,6.11,1.26,3.31,2.07,4.55c.81,1.24,1.7,2.2,2.78,2.84,1.08,.65,2.32,.98,3.66,.98,1.69,0,3.22-.42,4.61-1.13s2.67-1.71,3.87-2.87Z"/><path class="b" d="M110.97,53.95c-1.24,.66-2.28,1.21-3.24,1.73-.97,.51-1.86,.99-2.83,1.51-.97,.51-2,1.07-3.24,1.73-.22,.08-.36,.08-.44,.08-.47,0-.95-.52-1.32-1.52s-.65-2.48-.72-4.4c-.97,1.01-2.03,2.02-3.19,2.91s-2.42,1.66-3.79,2.21c-1.37,.55-2.85,.88-4.45,.88-1.24,0-2.44-.23-3.57-.68-1.13-.45-2.18-1.11-3.13-1.98s-1.79-1.93-2.49-3.19c-.7-1.26-1.26-2.7-1.65-4.32-.39-1.62-.59-3.41-.59-5.36,0-2.11,.27-4,.74-5.68,.48-1.69,1.17-3.17,2.01-4.46s1.84-2.39,2.93-3.32,2.29-1.68,3.52-2.27c1.23-.59,2.51-1.02,3.77-1.3,1.26-.28,2.51-.41,3.69-.41s2.2,.12,3.22,.34c1.02,.22,1.98,.54,2.89,.94V10.67c0-1.8-.13-3.12-.46-3.99-.34-.87-.88-1.29-1.72-1.29-.73,0-1.67,.4-2.91,.96-.44,.24-.8-.8-.58-.88,1.37-.71,2.51-1.31,3.57-1.87,1.06-.56,2.05-1.07,3.12-1.63,1.06-.56,2.21-1.15,3.57-1.87,.15-.08,.22-.08,.29-.08,.44,0,1.02,.56,1.02,.88V48.91c0,1.88,.16,3.16,.53,3.97s.93,1.15,1.73,1.15c.73,0,1.89-.24,3.28-.96,.29-.24,.73,.72,.44,.88Zm-11.87-2.4v-19.12c-.95-1.44-1.98-2.54-3.2-3.28s-2.62-1.12-4.3-1.12c-1.33,0-2.53,.24-3.6,.74-1.06,.5-1.98,1.27-2.73,2.33-.75,1.05-1.34,2.4-1.73,4.05-.4,1.65-.61,3.62-.61,5.92s.22,4.33,.63,6.11c.41,1.79,1.01,3.31,1.76,4.55,.75,1.24,1.65,2.2,2.67,2.84,1.02,.65,2.16,.98,3.38,.98,1.53,0,2.89-.42,4.16-1.13s2.43-1.71,3.56-2.87Z"/><path class="b" d="M138.04,52.51c-1.12,1.33-2.16,2.47-3.16,3.4-1,.92-1.97,1.64-2.95,2.12-.98,.48-1.96,.73-3,.73-1.64,0-2.64-.64-3.11-1.94-.47-1.3-.41-3.26,.07-5.9,.31-1.7,.57-3.11,.81-4.43,.24-1.32,.46-2.54,.7-3.86,.24-1.32,.5-2.73,.81-4.43,.52-2.72,.56-4.72,.15-6.04s-1.27-1.96-2.55-1.96c-.77,0-1.57,.25-2.38,.74s-1.63,1.22-2.45,2.19c-.81,.96-1.62,2.16-2.41,3.59-.79,1.42-1.55,3.07-2.28,4.94-.73,1.87-1.41,3.95-2.05,6.25-.63,2.29-1.21,4.8-1.72,7.51-.13,.74-.19,1.1-.32,1.84-.24,.88-1.52,1.44-3.84,1.44-1.92,0-2.4-.24-2.4-.56,0-.2,.18-1,.42-2.1,.24-1.1,.54-2.5,.78-3.9,.34-1.87,.67-3.63,.98-5.31,.31-1.68,.61-3.28,.89-4.83,.29-1.54,.56-3.03,.83-4.48,.27-1.45,.53-2.87,.79-4.27,.26-1.41,.52-2.8,.78-4.21s.52-2.82,.79-4.27c.27-1.45,.54-2.94,.83-4.48,.29-1.54,.58-3.15,.89-4.83,.31-1.68,.64-3.45,.98-5.31,.4-2.36,.3-3.76-.47-4.3s-2.21-.22-4.49,.86c-.4,.24-.8-.72-.32-.88,1.56-.77,2.86-1.41,4.07-2.01s2.34-1.15,3.55-1.75c1.21-.6,2.51-1.24,4.07-2.01,.48-.16,1.04,.4,.96,.64-.32,1.81-.63,3.52-.92,5.15-.29,1.63-.57,3.18-.84,4.68-.27,1.5-.53,2.94-.78,4.35s-.5,2.78-.74,4.14-.49,2.71-.73,4.08-.49,2.74-.74,4.14c-.25,1.41-.51,2.85-.78,4.35-.27,1.5-.55,3.05-.84,4.68-.29,1.63-.6,3.34-.92,5.15,.74-1.92,1.53-3.68,2.37-5.28,.84-1.59,1.74-3.01,2.67-4.25,.94-1.24,1.91-2.29,2.93-3.14,1.01-.85,2.06-1.51,3.13-1.95s2.17-.67,3.29-.67c1.49,0,2.68,.36,3.56,1.12,.88,.76,1.44,1.9,1.68,3.47,.24,1.56,.15,3.55-.28,5.97-.35,1.9-.65,3.48-.92,4.96-.27,1.48-.53,2.85-.8,4.32-.27,1.48-.57,3.06-.92,4.96-.56,3.12,.08,4.08,1.12,4.08,.56,0,1.24-.32,2.01-.87,.77-.55,1.63-1.33,2.55-2.25,.4-.4,1.04,.24,.64,.64Z"/><path class="b" d="M137.15,42.59c.3-1.59,.74-3.12,1.32-4.55,.58-1.43,1.29-2.76,2.11-3.99s1.76-2.33,2.79-3.3c1.03-.97,2.14-1.81,3.33-2.5s2.45-1.22,3.76-1.59c1.31-.36,2.67-.55,4.05-.55,1.74,0,3.28,.29,4.6,.84,1.32,.54,2.43,1.34,3.33,2.34,.9,1,1.59,2.2,2.06,3.56,.48,1.36,.74,2.89,.8,4.52,.05,1.64-.11,3.4-.47,5.22-.35,1.78-.86,3.44-1.51,4.95-.65,1.51-1.43,2.88-2.32,4.11-.89,1.23-1.88,2.31-2.95,3.24-1.07,.93-2.21,1.72-3.39,2.35s-2.41,1.11-3.64,1.43c-1.24,.32-2.48,.48-3.71,.48-1.71,0-3.22-.3-4.51-.86-1.3-.56-2.39-1.37-3.27-2.39s-1.56-2.24-2.03-3.61c-.47-1.37-.73-2.9-.79-4.54s.1-3.38,.44-5.16Zm20.96,3.52c.34-1.81,.51-3.62,.53-5.35,.02-1.74-.11-3.4-.39-4.92-.28-1.52-.7-2.89-1.27-4.05s-1.27-2.1-2.12-2.75c-.84-.65-1.82-1.01-2.92-1.01-1.17,0-2.31,.42-3.36,1.25-1.05,.83-2,2.07-2.81,3.72s-1.47,3.7-1.92,6.15c-.34,1.84-.51,3.66-.53,5.4s.12,3.4,.4,4.91c.28,1.51,.71,2.86,1.28,4,.57,1.14,1.27,2.06,2.11,2.7,.84,.64,1.8,.99,2.89,.99,1.25,0,2.43-.47,3.48-1.35,1.05-.88,1.99-2.17,2.77-3.8s1.4-3.62,1.83-5.88Z"/><path class="b" d="M197.38,29.71c0,1.36-1.06,2.48-3.58,2.48-1.6,0-2.63-.6-3.73-1.2s-2.29-1.2-4.24-1.2c-.95,0-1.8,.12-2.99,.75-1.19,.63-2.64,1.77-4.77,3.81v17.2c0,1.52,.16,2.64,.67,3.46,.51,.82,1.32,1.33,2.84,1.64,1.52,.31,3.82,.42,7.12,.42,.6,0,.6,.96,0,.96-1.29,0-2.76-.02-4.3-.04-1.53-.02-3.12-.05-4.57-.08s-2.95-.04-4.47-.04c-1.69,0-3.34,.04-4.84,.08s-2.86,.08-3.97,.08c-.39,0-.39-.96,0-.96,2.52,0,4.02-.24,4.89-1.05s1.11-2.19,1.11-4.47v-15.84c0-1.76-.22-3.04-.75-3.88s-1.38-1.24-2.64-1.24c-.63,0-1.38,.12-2.25,.33-.87,.21-1.86,.51-2.98,.87-.58,.16-1.07-.64-.48-.88,1.5-.59,2.74-1.08,3.91-1.53,1.16-.46,2.25-.88,3.41-1.34s2.41-.95,3.91-1.53c.19-.08,.39-.08,.58-.08,.48,0,1.19,.58,1.77,1.69,.58,1.11,1.04,2.75,1.04,4.87v.08c1.81-1.73,3.34-3.05,4.82-4.03,1.48-.98,2.81-1.64,4.03-2.04,1.22-.41,2.34-.57,3.46-.57,1.68,0,3.5,.36,4.82,.95s2.17,1.41,2.17,2.33Z"/><path class="b" d="M212.29,38.99c1.24,.72,2.53,1.44,3.7,2.28,1.17,.84,2.22,1.8,2.98,2.99,.76,1.19,1.22,2.63,1.22,4.41,0,1.3-.24,2.59-.71,3.79s-1.18,2.32-2.11,3.28-2.1,1.75-3.5,2.3-3.01,.87-4.86,.87c-1.25,0-2.49-.12-3.75-.46s-2.56-.9-3.92-1.78c-.23-.24-.46-.48-.46-.96-.03-1.47-.05-2.58-.08-3.68-.02-1.1-.05-2.21-.08-3.68,0-.32,.84-.4,.91-.16,.56,1.76,1.36,3.36,2.33,4.71,.97,1.35,2.1,2.45,3.32,3.22s2.53,1.19,3.85,1.19,2.28-.34,2.98-1.06c.7-.72,1.08-1.83,1.05-3.34-.03-1.46-.41-2.66-1.02-3.66s-1.46-1.82-2.42-2.54c-.96-.72-2.04-1.36-3.1-1.96-1.2-.67-2.46-1.32-3.57-2.11s-2.1-1.7-2.81-2.87c-.71-1.18-1.14-2.62-1.14-4.46,0-1.62,.34-2.99,.93-4.15,.59-1.15,1.43-2.08,2.45-2.8,1.01-.73,2.19-1.25,3.46-1.59,1.26-.34,2.61-.5,3.96-.5,1.06,0,2.01,.08,2.98,.27,.97,.19,1.96,.49,3.1,.93,.46,.24,.68,.56,.68,.88,0,1-.04,2.02-.08,3.12s-.08,2.28-.08,3.6c0,.32-.91,.32-.91,0,0-1.07-.46-2.23-1.23-3.31-.77-1.08-1.84-2.07-3.06-2.79-1.22-.72-2.58-1.18-3.92-1.18-.91,0-1.79,.2-2.43,.74s-1.06,1.42-1.06,2.78c0,1.23,.35,2.28,.93,3.2s1.4,1.72,2.35,2.45c.95,.73,2.02,1.39,3.11,2.03Z"/><path class="b" d="M245.2,30.43c-.12,.97-.57,1.93-1.27,2.84-.7,.91-1.65,1.78-2.81,2.59-1.16,.81-2.52,1.57-4.02,2.25-1.5,.68-3.15,1.3-4.89,1.82-1.74,.53-4.91,.77-5.42,1.3-.59,.61-.37,3.94-.2,5.67,.17,1.74,.57,3.29,1.21,4.6s1.52,2.36,2.65,3.08,2.5,1.13,4.11,1.13c1.12,0,2.4-.16,3.7-.55s2.62-1.01,3.82-1.93c.24-.16,.8,.4,.56,.64-1.36,1.25-2.74,2.24-4.12,3s-2.76,1.29-4.12,1.63c-1.36,.34-2.7,.49-4.01,.49-1.79,0-3.34-.31-4.67-.87-1.32-.56-2.42-1.37-3.3-2.37-.88-1-1.54-2.19-1.99-3.51s-.71-2.77-.76-4.29c-.06-1.52,.1-3.12,.4-4.71,.26-1.36,.68-2.76,1.26-4.13,.58-1.36,1.31-2.7,2.18-3.97,.87-1.27,1.87-2.47,2.99-3.55s2.35-2.05,3.67-2.86c1.33-.81,2.75-1.46,4.24-1.91,1.5-.45,3.07-.7,4.69-.7,2.08,0,3.68,.4,4.72,1.14s1.53,1.83,1.36,3.18Zm-10.08-2.16c-1.04,0-2,.33-2.86,.92-.87,.59-1.64,1.45-2.33,2.51-.69,1.06-1.28,2.33-1.77,3.74-.5,1.41-.9,2.97-1.2,4.61,2.03-.45,3.85-1.02,5.4-1.73,1.56-.71,2.84-1.56,3.8-2.59,.96-1.02,1.56-2.25,1.83-3.6,.24-1.22,.06-2.2-.48-2.85-.54-.65-1.4-.99-2.4-.99Z"/></svg>
